<?xml version="1.0" encoding="UTF-8" standalone="no"?>
<!DOCTYPE svg PUBLIC "-//W3C//DTD SVG 1.1//EN" "http://www.w3.org/Graphics/SVG/1.1/DTD/svg11.dtd">
<svg width="100%" height="100%" viewBox="0 0 3500 5500" version="1.1" xmlns="http://www.w3.org/2000/svg" xmlns:xlink="http://www.w3.org/1999/xlink" xml:space="preserve" xmlns:serif="http://www.serif.com/" style="fill-rule:evenodd;clip-rule:evenodd;stroke-linejoin:round;stroke-miterlimit:2;">
    <g transform="matrix(1,0,0,1,-12000,-3500)">
        <g id="Logo-Monochrome--Light-" serif:id="Logo Monochrome (Light)" transform="matrix(0.37815,0,0,1.20704,12018.4,-593.76)">
            <rect x="-48.714" y="3391.57" width="9255.6" height="4556.6" style="fill:none;"/>
            <g id="Logo" transform="matrix(2.64446,0,0,0.828473,-207.261,527.015)">
                <g id="Text" transform="matrix(1,0,0,1,-1489.82,-98.1182)">
                    <g transform="matrix(1.57254,0,0,1.57254,-3422.35,-748.707)">
                        <text x="3337.79px" y="5423.92px" style="font-family:'LilitaOne', 'Lilita One';font-size:600px;fill:white;">GODOT</text>
                        <text x="3288.29px" y="6023.92px" style="font-family:'LilitaOne', 'Lilita One';font-size:600px;fill:white;">SECURE</text>
                    </g>
                    <g transform="matrix(1.50422,0,0,1.50422,-2597.28,-310.837)">
                        <text x="3091.96px" y="4735.54px" style="font-family:'Roboto-Medium', 'Roboto';font-weight:500;font-size:300px;fill:white;">Pr<tspan x="3385.66px " y="4735.54px ">o</tspan>tected By</text>
                    </g>
                </g>
                <g id="Icon" transform="matrix(1,0,0,1,309.917,3433.66)">
                    <g transform="matrix(1,0,0,1,-7000,0)">
                        <clipPath id="_clip1">
                            <rect x="7737.73" y="346.065" width="1524.54" height="1207.13"/>
                        </clipPath>
                        <g clip-path="url(#_clip1)">
                            <path d="M9262.27,956.563C9262.27,619.62 8988.71,346.065 8651.77,346.065L8348.23,346.065C8011.29,346.065 7737.73,619.62 7737.73,956.563L7737.73,1379.97C7737.73,1716.91 8011.29,1990.47 8348.23,1990.47L8651.77,1990.47C8988.71,1990.47 9262.27,1716.91 9262.27,1379.97L9262.27,956.563ZM9013.15,993.777C9013.15,766.949 8829,582.794 8602.17,582.794L8397.83,582.794C8171,582.794 7986.85,766.949 7986.85,993.777L7986.85,1237.4C7986.85,1464.23 8171,1648.38 8397.83,1648.38L8602.17,1648.38C8829,1648.38 9013.15,1464.23 9013.15,1237.4L9013.15,993.777Z" style="fill:white;"/>
                        </g>
                    </g>
                    <g id="icon.svg--dark-" serif:id="icon.svg (dark)" transform="matrix(2.12705,0,0,2.12705,1500.05,1865.05)">
                        <g transform="matrix(1,0,0,1,-512,-512)">
                            <g>
                                <path d="M105,673L105,706C376.333,942 647.667,942 919,706L919,673L105,673Z" style="fill-opacity:0;fill-rule:nonzero;"/>
                                <g id="Layer1">
                                </g>
                                <path d="M105,706L105,745C105,1021 918,1021 919,745L919,706L785,718L780,787C778.667,793.667 774,798 766,800L604,811C596,811 590.667,807.333 588,800L578,735L446,735L436,800C433.333,807.333 428,811 420,811L258,800C250,798 245.333,793.667 244,787L239,718L105,706ZM105,673L257,687C265,687.667 270,692.333 272,701L276,768L408,778L416,717C417.333,709.667 422.333,704.667 431,702L593,702C601.667,704.667 606.667,709.667 608,717L616,778L748,768L752,701C754,692.333 759,687.667 767,687L919,673L919,427C939,401 957.667,374 975,346C951.667,306.667 924,270.667 892,238C863.333,251.333 836,267 810,285C783.333,260.333 754,239 722,221C726.667,187 729.333,153 730,119C690.667,100.333 649.667,86.333 607,77C589.667,105.667 574.333,135.333 561,166C528.333,161.333 495.667,161.333 463,166C449.667,135.333 434.333,105.667 417,77C374.333,86.333 333.333,100.333 294,119C294.667,153 297.333,187 302,221C270,239 240.667,260.333 214,285C188,267 160.667,251.333 132,238C100,270.667 72.333,306.667 49,346C66.333,374 85,401 105,427L105,673ZM538.411,561.948L548.977,611.979C549.743,615.608 548.832,619.388 546.496,622.268C544.161,625.148 540.65,626.821 536.942,626.821C522.649,626.821 501.351,626.821 487.058,626.821C483.35,626.821 479.839,625.148 477.504,622.268C475.168,619.388 474.257,615.608 475.023,611.979L485.589,561.948C477.602,554.006 472.58,542.521 472.58,529.756C472.58,505.815 490.243,486.378 512,486.378C533.757,486.378 551.42,505.815 551.42,529.756C551.42,542.521 546.398,554.006 538.411,561.948ZM725,436C774.672,436 815,476.328 815,526C815,575.672 774.672,616 725,616C675.328,616 635,575.672 635,526C635,476.328 675.328,436 725,436ZM299,436C348.672,436 389,476.328 389,526C389,575.672 348.672,616 299,616C249.328,616 209,575.672 209,526C209,476.328 249.328,436 299,436Z" style="fill:white;"/>
                            </g>
                            <g>
                                <circle cx="307" cy="532" r="60" style="fill:white;"/>
                                <circle cx="717" cy="532" r="60" style="fill:white;"/>
                            </g>
                        </g>
                    </g>
                </g>
            </g>
        </g>
    </g>
</svg>
