<?xml version="1.0" encoding="UTF-8" standalone="no"?>
<!DOCTYPE svg PUBLIC "-//W3C//DTD SVG 1.1//EN" "http://www.w3.org/Graphics/SVG/1.1/DTD/svg11.dtd">
<svg width="100%" height="100%" viewBox="0 0 3000 3000" version="1.1" xmlns="http://www.w3.org/2000/svg" xmlns:xlink="http://www.w3.org/1999/xlink" xml:space="preserve" xmlns:serif="http://www.serif.com/" style="fill-rule:evenodd;clip-rule:evenodd;stroke-linejoin:round;stroke-miterlimit:2;">
    <rect id="Version-1--Colored-" serif:id="Version 1 (Colored)" x="0" y="0" width="3000" height="3000" style="fill:none;"/>
    <g id="Version-1--Colored-1" serif:id="Version 1 (Colored)">
        <g id="Icon">
            <g transform="matrix(1.1058,0,0,1.50072,-115.647,-386.797)">
                <path d="M2150.41,895.142C2150.41,670.622 1903.02,488.34 1598.32,488.34L1323.82,488.34C1019.11,488.34 771.73,670.622 771.73,895.142L771.73,1177.28C771.73,1401.8 1019.11,1584.08 1323.82,1584.08L1598.32,1584.08C1903.02,1584.08 2150.41,1401.8 2150.41,1177.28L2150.41,895.142Z" style="fill:rgb(71,140,191);"/>
            </g>
            <g transform="matrix(0.744416,0,0,0.972482,412.358,107.892)">
                <path d="M2150.41,910.952C2150.41,677.706 1903.02,488.34 1598.32,488.34L1323.82,488.34C1019.11,488.34 771.73,677.706 771.73,910.952L771.73,1161.47C771.73,1394.71 1019.11,1584.08 1323.82,1584.08L1598.32,1584.08C1903.02,1584.08 2150.41,1394.71 2150.41,1161.47L2150.41,910.952Z" style="fill:white;"/>
            </g>
            <g id="icon.svg" transform="matrix(2.12703,0,0,2.12703,1500,1865)">
                <g transform="matrix(1,0,0,1,-512,-512)">
                    <g>
                        <path d="M105,673L105,706C376.333,942 647.667,942 919,706L919,673L105,673Z" style="fill:white;fill-rule:nonzero;"/>
                        <path d="M105,673L257,687C265,687.667 270,692.333 272,701L276,768L408,778L416,717C417.333,709.667 422.333,704.667 431,702L593,702C601.667,704.667 606.667,709.667 608,717L616,778L748,768L752,701C754,692.333 759,687.667 767,687L919,673L919,427C939,401 957.667,374 975,346C951.667,306.667 924,270.667 892,238C863.333,251.333 836,267 810,285C783.333,260.333 754,239 722,221C726.667,187 729.333,153 730,119C690.667,100.333 649.667,86.333 607,77C589.667,105.667 574.333,135.333 561,166C528.333,161.333 495.667,161.333 463,166C449.667,135.333 434.333,105.667 417,77C374.333,86.333 333.333,100.333 294,119C294.667,153 297.333,187 302,221C270,239 240.667,260.333 214,285C188,267 160.667,251.333 132,238C100,270.667 72.333,306.667 49,346C66.333,374 85,401 105,427L105,673ZM105,706L105,745C105,1021 918,1021 919,745L919,706L785,718L780,787C778.667,793.667 774,798 766,800L604,811C596,811 590.667,807.333 588,800L578,735L446,735L436,800C433.333,807.333 428,811 420,811L258,800C250,798 245.333,793.667 244,787L239,718L105,706Z" style="fill:rgb(71,140,191);fill-rule:nonzero;"/>
                        <g id="Layer1" transform="matrix(0.90875,0,0,1,40.3882,0)">
                            <g transform="matrix(1,0,0,1,0,12.5865)">
                                <circle cx="518.968" cy="517.169" r="43.378" style="fill:white;"/>
                            </g>
                            <g transform="matrix(1.09102,0,0,1.83701,-17.5664,-509.434)">
                                <path d="M473.91,560.793C475.693,556.237 483.143,552.976 491.772,552.976C500.4,552.976 507.851,556.237 509.634,560.793C517.024,579.679 524.841,599.657 529.067,610.456C529.84,612.431 528.92,614.489 526.565,616.057C524.209,617.625 520.669,618.536 516.929,618.536C502.513,618.536 481.031,618.536 466.615,618.536C462.875,618.536 459.334,617.625 456.979,616.057C454.623,614.489 453.704,612.431 454.477,610.456C458.703,599.657 466.52,579.679 473.91,560.793Z" style="fill:white;"/>
                            </g>
                        </g>
                        <circle cx="725" cy="526" r="90" style="fill:white;"/>
                        <circle cx="299" cy="526" r="90" style="fill:white;"/>
                    </g>
                    <g>
                        <circle cx="307" cy="532" r="60" style="fill:rgb(65,64,66);"/>
                        <circle cx="717" cy="532" r="60" style="fill:rgb(65,64,66);"/>
                    </g>
                </g>
            </g>
        </g>
    </g>
</svg>
